<?xml version="1.0" encoding="utf-8"?>
<!-- Generator: Adobe Illustrator 23.1.0, SVG Export Plug-In . SVG Version: 6.00 Build 0)  -->
<svg version="1.1" id="Calque_1" xmlns="http://www.w3.org/2000/svg" xmlns:xlink="http://www.w3.org/1999/xlink" x="0px" y="0px"
	 viewBox="0 0 255.1 340.2" style="enable-background:new 0 0 255.1 340.2;" xml:space="preserve">
<style type="text/css">
	.st0{opacity:5.000000e-02;fill:#FFFFFF;enable-background:new    ;}
	.st1{opacity:9.523810e-02;fill:#FFFFFF;enable-background:new    ;}
	.st2{opacity:0.1405;fill:#FFFFFF;enable-background:new    ;}
	.st3{opacity:0.1857;fill:#FFFFFF;enable-background:new    ;}
	.st4{opacity:0.231;fill:#FFFFFF;enable-background:new    ;}
	.st5{opacity:0.2762;fill:#FFFFFF;enable-background:new    ;}
	.st6{opacity:0.3214;fill:#FFFFFF;enable-background:new    ;}
	.st7{opacity:0.3667;fill:#FFFFFF;enable-background:new    ;}
	.st8{opacity:0.4119;fill:#FFFFFF;enable-background:new    ;}
	.st9{opacity:0.4571;fill:#FFFFFF;enable-background:new    ;}
	.st10{opacity:0.5024;fill:#FFFFFF;enable-background:new    ;}
	.st11{opacity:0.5476;fill:#FFFFFF;enable-background:new    ;}
	.st12{opacity:0.5929;fill:#FFFFFF;enable-background:new    ;}
	.st13{opacity:0.6381;fill:#FFFFFF;enable-background:new    ;}
	.st14{opacity:0.6833;fill:#FFFFFF;enable-background:new    ;}
	.st15{opacity:0.7286;fill:#FFFFFF;enable-background:new    ;}
	.st16{opacity:0.7738;fill:#FFFFFF;enable-background:new    ;}
	.st17{opacity:0.819;fill:#FFFFFF;enable-background:new    ;}
	.st18{opacity:0.8643;fill:#FFFFFF;enable-background:new    ;}
	.st19{opacity:0.9095;fill:#FFFFFF;enable-background:new    ;}
	.st20{opacity:0.9548;fill:#FFFFFF;enable-background:new    ;}
	.st21{fill:#FFFFFF;}
</style>
<title>cadres</title>
<rect x="1.2" y="0.8" class="st0" width="252.8" height="338.1"/>
<rect x="2.1" y="2" class="st1" width="250.8" height="336.1"/>
<rect x="3.4" y="2.9" class="st2" width="248.5" height="334"/>
<rect x="4.4" y="4" class="st3" width="246.4" height="332"/>
<rect x="5.5" y="5" class="st4" width="244.3" height="330.1"/>
<rect x="6.4" y="5.9" class="st5" width="242.3" height="328"/>
<rect x="7.6" y="7" class="st6" width="240.2" height="325.9"/>
<rect x="8.5" y="8" class="st7" width="238.1" height="323.9"/>
<rect x="9.5" y="9.1" class="st8" width="236" height="321.8"/>
<rect x="10.8" y="10.1" class="st9" width="233.8" height="319.9"/>
<rect x="11.7" y="11" class="st10" width="231.7" height="317.9"/>
<rect x="12.9" y="12.1" class="st11" width="229.6" height="315.8"/>
<rect x="13.8" y="13.1" class="st12" width="227.5" height="313.7"/>
<rect x="14.9" y="14.2" class="st13" width="225.4" height="311.7"/>
<rect x="15.9" y="15.1" class="st14" width="223.4" height="309.8"/>
<rect x="16.8" y="16.1" class="st15" width="221.3" height="307.7"/>
<rect x="18.2" y="17.2" class="st16" width="219" height="305.7"/>
<rect x="19.1" y="18.1" class="st17" width="216.9" height="303.6"/>
<rect x="20.2" y="19.3" class="st18" width="214.9" height="301.5"/>
<rect x="21.2" y="20.2" class="st19" width="212.8" height="299.7"/>
<rect x="22.3" y="21.1" class="st20" width="210.7" height="297.6"/>
<rect x="23.3" y="22.3" class="st21" width="208.6" height="295.5"/>
</svg>
