<?xml version="1.0" encoding="utf-8"?>
<!-- Generator: Adobe Illustrator 23.0.6, SVG Export Plug-In . SVG Version: 6.00 Build 0)  -->
<svg version="1.1" id="Calque_1" xmlns="http://www.w3.org/2000/svg" xmlns:xlink="http://www.w3.org/1999/xlink" x="0px" y="0px"
	 viewBox="0 0 112.2 144.9" style="enable-background:new 0 0 112.2 144.9;" xml:space="preserve">
<style type="text/css">
	.st0{fill:#FFFFFF;fill-opacity:0;}
	.st1{opacity:5.000000e-02;fill:#FFFFFF;enable-background:new    ;}
	.st2{opacity:0.1;fill:#FFFFFF;enable-background:new    ;}
	.st3{opacity:0.14;fill:#FFFFFF;enable-background:new    ;}
	.st4{opacity:0.19;fill:#FFFFFF;enable-background:new    ;}
	.st5{opacity:0.24;fill:#FFFFFF;enable-background:new    ;}
	.st6{opacity:0.29;fill:#FFFFFF;enable-background:new    ;}
	.st7{opacity:0.33;fill:#FFFFFF;enable-background:new    ;}
	.st8{opacity:0.38;fill:#FFFFFF;enable-background:new    ;}
	.st9{opacity:0.43;fill:#FFFFFF;enable-background:new    ;}
	.st10{opacity:0.48;fill:#FFFFFF;enable-background:new    ;}
	.st11{opacity:0.52;fill:#FFFFFF;enable-background:new    ;}
	.st12{opacity:0.57;fill:#FFFFFF;enable-background:new    ;}
	.st13{opacity:0.62;fill:#FFFFFF;enable-background:new    ;}
	.st14{opacity:0.67;fill:#FFFFFF;enable-background:new    ;}
	.st15{opacity:0.71;fill:#FFFFFF;enable-background:new    ;}
	.st16{opacity:0.76;fill:#FFFFFF;enable-background:new    ;}
	.st17{opacity:0.81;fill:#FFFFFF;enable-background:new    ;}
	.st18{opacity:0.86;fill:#FFFFFF;enable-background:new    ;}
	.st19{opacity:0.9;fill:#FFFFFF;enable-background:new    ;}
	.st20{opacity:0.95;fill:#FFFFFF;enable-background:new    ;}
	.st21{fill:#FFFFFF;}
</style>
<title>cadres</title>
<ellipse class="st0" cx="56.3" cy="72.2" rx="54.9" ry="72.5"/>
<ellipse class="st1" cx="56.3" cy="72.2" rx="54.5" ry="71.9"/>
<ellipse class="st2" cx="56.3" cy="72.2" rx="54.1" ry="71.4"/>
<ellipse class="st3" cx="56.3" cy="72.2" rx="53.6" ry="70.8"/>
<ellipse class="st4" cx="56.3" cy="72.2" rx="53.2" ry="70.2"/>
<ellipse class="st5" cx="56.3" cy="72.2" rx="52.7" ry="69.6"/>
<ellipse class="st6" cx="56.3" cy="72.2" rx="52.3" ry="69"/>
<ellipse class="st7" cx="56.3" cy="72.2" rx="51.8" ry="68.4"/>
<ellipse class="st8" cx="56.3" cy="72.2" rx="51.4" ry="67.8"/>
<ellipse class="st9" cx="56.3" cy="72.2" rx="50.9" ry="67.2"/>
<ellipse class="st10" cx="56.3" cy="72.2" rx="50.5" ry="66.6"/>
<ellipse class="st11" cx="56.3" cy="72.2" rx="50.1" ry="66"/>
<ellipse class="st12" cx="56.3" cy="72.2" rx="49.6" ry="65.4"/>
<ellipse class="st13" cx="56.3" cy="72.2" rx="49.2" ry="64.8"/>
<ellipse class="st14" cx="56.3" cy="72.2" rx="48.7" ry="64.3"/>
<ellipse class="st15" cx="56.3" cy="72.2" rx="48.2" ry="63.7"/>
<ellipse class="st16" cx="56.3" cy="72.2" rx="47.7" ry="63.1"/>
<ellipse class="st17" cx="56.3" cy="72.2" rx="47.3" ry="62.5"/>
<ellipse class="st18" cx="56.3" cy="72.2" rx="46.8" ry="61.9"/>
<ellipse class="st19" cx="56.3" cy="72.2" rx="46.4" ry="61.3"/>
<ellipse class="st20" cx="56.3" cy="72.2" rx="45.9" ry="60.7"/>
<ellipse class="st21" cx="56.3" cy="72.2" rx="45.5" ry="60.1"/>
</svg>
