<?xml version="1.0" encoding="utf-8"?>
<!-- Generator: Adobe Illustrator 23.1.0, SVG Export Plug-In . SVG Version: 6.00 Build 0)  -->
<svg version="1.1" id="Calque_1" xmlns="http://www.w3.org/2000/svg" xmlns:xlink="http://www.w3.org/1999/xlink" x="0px" y="0px"
	 viewBox="0 0 510.2 708.7" style="enable-background:new 0 0 510.2 708.7;" xml:space="preserve">
<style type="text/css">
	.st0{opacity:5.000000e-02;fill:#FFFFFF;enable-background:new    ;}
	.st1{opacity:9.523810e-02;fill:#FFFFFF;enable-background:new    ;}
	.st2{opacity:0.1405;fill:#FFFFFF;enable-background:new    ;}
	.st3{opacity:0.1857;fill:#FFFFFF;enable-background:new    ;}
	.st4{opacity:0.231;fill:#FFFFFF;enable-background:new    ;}
	.st5{opacity:0.2762;fill:#FFFFFF;enable-background:new    ;}
	.st6{opacity:0.3214;fill:#FFFFFF;enable-background:new    ;}
	.st7{opacity:0.3667;fill:#FFFFFF;enable-background:new    ;}
	.st8{opacity:0.4119;fill:#FFFFFF;enable-background:new    ;}
	.st9{opacity:0.4571;fill:#FFFFFF;enable-background:new    ;}
	.st10{opacity:0.5024;fill:#FFFFFF;enable-background:new    ;}
	.st11{opacity:0.5476;fill:#FFFFFF;enable-background:new    ;}
	.st12{opacity:0.5929;fill:#FFFFFF;enable-background:new    ;}
	.st13{opacity:0.6381;fill:#FFFFFF;enable-background:new    ;}
	.st14{opacity:0.6833;fill:#FFFFFF;enable-background:new    ;}
	.st15{opacity:0.7286;fill:#FFFFFF;enable-background:new    ;}
	.st16{opacity:0.7738;fill:#FFFFFF;enable-background:new    ;}
	.st17{opacity:0.819;fill:#FFFFFF;enable-background:new    ;}
	.st18{opacity:0.8643;fill:#FFFFFF;enable-background:new    ;}
	.st19{opacity:0.9095;fill:#FFFFFF;enable-background:new    ;}
	.st20{opacity:0.9548;fill:#FFFFFF;enable-background:new    ;}
	.st21{fill:#FFFFFF;}
</style>
<title>cadres</title>
<rect x="1.5" y="1.8" class="st0" width="506.5" height="705.2"/>
<rect x="3.4" y="4.1" class="st1" width="502.3" height="700.9"/>
<rect x="6.1" y="6.1" class="st2" width="497.8" height="696.6"/>
<rect x="8" y="8.4" class="st3" width="493.6" height="692.3"/>
<rect x="10.2" y="10.4" class="st4" width="489.4" height="688.4"/>
<rect x="12.1" y="12.4" class="st5" width="485.3" height="684.1"/>
<rect x="14.4" y="14.7" class="st6" width="481.1" height="679.8"/>
<rect x="16.3" y="16.7" class="st7" width="477" height="675.5"/>
<rect x="18.2" y="19" class="st8" width="472.8" height="671.2"/>
<rect x="20.8" y="21" class="st9" width="468.2" height="667.2"/>
<rect x="22.7" y="22.9" class="st10" width="464.1" height="662.9"/>
<rect x="25" y="25.3" class="st11" width="459.9" height="658.6"/>
<rect x="26.9" y="27.2" class="st12" width="455.8" height="654.3"/>
<rect x="29.2" y="29.6" class="st13" width="451.6" height="650"/>
<rect x="31" y="31.5" class="st14" width="447.4" height="646.1"/>
<rect x="32.9" y="33.5" class="st15" width="443.3" height="641.8"/>
<rect x="35.6" y="35.8" class="st16" width="438.7" height="637.5"/>
<rect x="37.5" y="37.8" class="st17" width="434.6" height="633.2"/>
<rect x="39.7" y="40.2" class="st18" width="430.4" height="628.9"/>
<rect x="41.6" y="42.1" class="st19" width="426.2" height="624.9"/>
<rect x="43.9" y="44.1" class="st20" width="422.1" height="620.6"/>
<rect x="45.8" y="46.4" class="st21" width="417.9" height="616.3"/>
</svg>
