<?xml version="1.0" encoding="utf-8"?>
<!-- Generator: Adobe Illustrator 23.1.0, SVG Export Plug-In . SVG Version: 6.00 Build 0)  -->
<svg version="1.1" id="Calque_1" xmlns="http://www.w3.org/2000/svg" xmlns:xlink="http://www.w3.org/1999/xlink" x="0px" y="0px"
	 viewBox="0 0 311.8 425.2" style="enable-background:new 0 0 311.8 425.2;" xml:space="preserve">
<style type="text/css">
	.st0{opacity:5.000000e-02;fill:#FFFFFF;enable-background:new    ;}
	.st1{opacity:9.523810e-02;fill:#FFFFFF;enable-background:new    ;}
	.st2{opacity:0.1405;fill:#FFFFFF;enable-background:new    ;}
	.st3{opacity:0.1857;fill:#FFFFFF;enable-background:new    ;}
	.st4{opacity:0.231;fill:#FFFFFF;enable-background:new    ;}
	.st5{opacity:0.2762;fill:#FFFFFF;enable-background:new    ;}
	.st6{opacity:0.3214;fill:#FFFFFF;enable-background:new    ;}
	.st7{opacity:0.3667;fill:#FFFFFF;enable-background:new    ;}
	.st8{opacity:0.4119;fill:#FFFFFF;enable-background:new    ;}
	.st9{opacity:0.4571;fill:#FFFFFF;enable-background:new    ;}
	.st10{opacity:0.5024;fill:#FFFFFF;enable-background:new    ;}
	.st11{opacity:0.5476;fill:#FFFFFF;enable-background:new    ;}
	.st12{opacity:0.5929;fill:#FFFFFF;enable-background:new    ;}
	.st13{opacity:0.6381;fill:#FFFFFF;enable-background:new    ;}
	.st14{opacity:0.6833;fill:#FFFFFF;enable-background:new    ;}
	.st15{opacity:0.7286;fill:#FFFFFF;enable-background:new    ;}
	.st16{opacity:0.7738;fill:#FFFFFF;enable-background:new    ;}
	.st17{opacity:0.819;fill:#FFFFFF;enable-background:new    ;}
	.st18{opacity:0.8643;fill:#FFFFFF;enable-background:new    ;}
	.st19{opacity:0.9095;fill:#FFFFFF;enable-background:new    ;}
	.st20{opacity:0.9548;fill:#FFFFFF;enable-background:new    ;}
	.st21{fill:#FFFFFF;}
</style>
<title>cadres</title>
<rect x="1.2" y="0.8" class="st0" width="309.8" height="425.1"/>
<rect x="2.3" y="2.3" class="st1" width="307.3" height="422.6"/>
<rect x="3.9" y="3.4" class="st2" width="304.5" height="420"/>
<rect x="5.1" y="4.9" class="st3" width="302" height="417.4"/>
<rect x="6.5" y="6" class="st4" width="299.4" height="415"/>
<rect x="7.6" y="7.2" class="st5" width="296.9" height="412.4"/>
<rect x="9" y="8.6" class="st6" width="294.3" height="409.8"/>
<rect x="10.2" y="9.8" class="st7" width="291.8" height="407.2"/>
<rect x="11.3" y="11.2" class="st8" width="289.2" height="404.6"/>
<rect x="13" y="12.4" class="st9" width="286.5" height="402.3"/>
<rect x="14.1" y="13.6" class="st10" width="283.9" height="399.7"/>
<rect x="15.5" y="15" class="st11" width="281.4" height="397.1"/>
<rect x="16.7" y="16.2" class="st12" width="278.8" height="394.5"/>
<rect x="18.1" y="17.6" class="st13" width="276.3" height="391.9"/>
<rect x="19.2" y="18.8" class="st14" width="273.7" height="389.5"/>
<rect x="20.4" y="20" class="st15" width="271.2" height="386.9"/>
<rect x="22" y="21.4" class="st16" width="268.4" height="384.3"/>
<rect x="23.1" y="22.6" class="st17" width="265.9" height="381.7"/>
<rect x="24.5" y="24" class="st18" width="263.3" height="379.1"/>
<rect x="25.7" y="25.2" class="st19" width="260.8" height="376.8"/>
<rect x="27.1" y="26.3" class="st20" width="258.2" height="374.2"/>
<rect x="28.2" y="27.8" class="st21" width="255.7" height="371.6"/>
</svg>
