<?xml version="1.0" encoding="utf-8"?>
<!-- Generator: Adobe Illustrator 23.0.6, SVG Export Plug-In . SVG Version: 6.00 Build 0)  -->
<svg version="1.1" id="Calque_1" xmlns="http://www.w3.org/2000/svg" xmlns:xlink="http://www.w3.org/1999/xlink" x="0px" y="0px"
	 viewBox="0 0 181.6 155.8" style="enable-background:new 0 0 181.6 155.8;" xml:space="preserve">
<style type="text/css">
	.st0{fill:#FFFFFF;fill-opacity:0;}
	.st1{opacity:5.000000e-02;fill:#FFFFFF;enable-background:new    ;}
	.st2{opacity:0.1;fill:#FFFFFF;enable-background:new    ;}
	.st3{opacity:0.14;fill:#FFFFFF;enable-background:new    ;}
	.st4{opacity:0.19;fill:#FFFFFF;enable-background:new    ;}
	.st5{opacity:0.24;fill:#FFFFFF;enable-background:new    ;}
	.st6{opacity:0.29;fill:#FFFFFF;enable-background:new    ;}
	.st7{opacity:0.33;fill:#FFFFFF;enable-background:new    ;}
	.st8{opacity:0.38;fill:#FFFFFF;enable-background:new    ;}
	.st9{opacity:0.43;fill:#FFFFFF;enable-background:new    ;}
	.st10{opacity:0.48;fill:#FFFFFF;enable-background:new    ;}
	.st11{opacity:0.52;fill:#FFFFFF;enable-background:new    ;}
	.st12{opacity:0.57;fill:#FFFFFF;enable-background:new    ;}
	.st13{opacity:0.62;fill:#FFFFFF;enable-background:new    ;}
	.st14{opacity:0.67;fill:#FFFFFF;enable-background:new    ;}
	.st15{opacity:0.71;fill:#FFFFFF;enable-background:new    ;}
	.st16{opacity:0.76;fill:#FFFFFF;enable-background:new    ;}
	.st17{opacity:0.81;fill:#FFFFFF;enable-background:new    ;}
	.st18{opacity:0.86;fill:#FFFFFF;enable-background:new    ;}
	.st19{opacity:0.9;fill:#FFFFFF;enable-background:new    ;}
	.st20{opacity:0.95;fill:#FFFFFF;enable-background:new    ;}
	.st21{fill:#FFFFFF;}
</style>
<title>cadres</title>
<ellipse class="st0" cx="90.8" cy="77.9" rx="90.8" ry="77.9"/>
<ellipse class="st1" cx="90.8" cy="77.9" rx="90" ry="77.3"/>
<ellipse class="st2" cx="90.8" cy="77.9" rx="89.4" ry="76.8"/>
<ellipse class="st3" cx="90.8" cy="77.9" rx="88.7" ry="76"/>
<ellipse class="st4" cx="90.8" cy="77.9" rx="87.9" ry="75.5"/>
<ellipse class="st5" cx="90.8" cy="77.9" rx="87.2" ry="74.7"/>
<ellipse class="st6" cx="90.8" cy="77.9" rx="86.4" ry="74.2"/>
<ellipse class="st7" cx="90.8" cy="77.9" rx="85.7" ry="73.5"/>
<ellipse class="st8" cx="90.8" cy="77.9" rx="84.9" ry="72.9"/>
<ellipse class="st9" cx="90.8" cy="77.9" rx="84.1" ry="72.2"/>
<ellipse class="st10" cx="90.8" cy="77.9" rx="83.4" ry="71.6"/>
<ellipse class="st11" cx="90.8" cy="77.9" rx="82.6" ry="71"/>
<ellipse class="st12" cx="90.8" cy="77.9" rx="81.9" ry="70.3"/>
<ellipse class="st13" cx="90.8" cy="77.9" rx="81.1" ry="69.7"/>
<ellipse class="st14" cx="90.8" cy="77.9" rx="80.5" ry="69"/>
<ellipse class="st15" cx="90.8" cy="77.9" rx="79.8" ry="68.4"/>
<ellipse class="st16" cx="90.8" cy="77.9" rx="79" ry="67.7"/>
<ellipse class="st17" cx="90.8" cy="77.9" rx="78.3" ry="67.1"/>
<ellipse class="st18" cx="90.8" cy="77.9" rx="77.5" ry="66.4"/>
<ellipse class="st19" cx="90.8" cy="77.9" rx="76.7" ry="65.9"/>
<ellipse class="st20" cx="90.8" cy="77.9" rx="76" ry="65.1"/>
<ellipse class="st21" cx="90.8" cy="77.9" rx="75.2" ry="64.6"/>
</svg>
